<mxfile host="app.diagrams.net" modified="2022-06-14T08:08:37.504Z" agent="5.0 (Windows NT 10.0; Win64; x64) AppleWebKit/537.36 (KHTML, like Gecko) Chrome/104.0.5107.0 Safari/537.36" etag="PZRb7CsmohP_uQmhMpfw" version="20.0.1" type="github">
  <diagram id="prtHgNgQTEPvFCAcTncT" name="Page-1">
    <mxGraphModel dx="1422" dy="862" grid="1" gridSize="10" guides="1" tooltips="1" connect="1" arrows="1" fold="1" page="1" pageScale="1" pageWidth="827" pageHeight="1169" math="0" shadow="0">
      <root>
        <mxCell id="0" />
        <mxCell id="1" parent="0" />
        <mxCell id="dNxyNK7c78bLwvsdeMH5-19" value="My Website" style="swimlane;html=1;childLayout=stackLayout;resizeParent=1;resizeParentMax=0;horizontal=0;startSize=20;horizontalStack=0;" parent="1" vertex="1">
          <mxGeometry x="120" y="120" width="720" height="455" as="geometry" />
        </mxCell>
        <mxCell id="dNxyNK7c78bLwvsdeMH5-20" value="前端" style="swimlane;html=1;startSize=20;horizontal=0;" parent="dNxyNK7c78bLwvsdeMH5-19" vertex="1">
          <mxGeometry x="20" width="700" height="155" as="geometry" />
        </mxCell>
        <mxCell id="TgIMgoYjFMIsPRe75QUH-2" value="" style="rounded=1;whiteSpace=wrap;html=1;" vertex="1" parent="dNxyNK7c78bLwvsdeMH5-20">
          <mxGeometry x="305" y="10" width="390" height="130" as="geometry" />
        </mxCell>
        <mxCell id="TgIMgoYjFMIsPRe75QUH-4" value="input" style="rounded=1;whiteSpace=wrap;html=1;" vertex="1" parent="dNxyNK7c78bLwvsdeMH5-20">
          <mxGeometry x="325" y="20" width="90" height="30" as="geometry" />
        </mxCell>
        <mxCell id="TgIMgoYjFMIsPRe75QUH-14" style="edgeStyle=orthogonalEdgeStyle;rounded=0;orthogonalLoop=1;jettySize=auto;html=1;" edge="1" parent="dNxyNK7c78bLwvsdeMH5-20" source="TgIMgoYjFMIsPRe75QUH-5" target="TgIMgoYjFMIsPRe75QUH-10">
          <mxGeometry relative="1" as="geometry" />
        </mxCell>
        <mxCell id="TgIMgoYjFMIsPRe75QUH-5" value="submit" style="rounded=1;whiteSpace=wrap;html=1;" vertex="1" parent="dNxyNK7c78bLwvsdeMH5-20">
          <mxGeometry x="445" y="20" width="90" height="30" as="geometry" />
        </mxCell>
        <mxCell id="TgIMgoYjFMIsPRe75QUH-26" style="edgeStyle=orthogonalEdgeStyle;rounded=0;orthogonalLoop=1;jettySize=auto;html=1;fontSize=11;entryX=0.75;entryY=1;entryDx=0;entryDy=0;" edge="1" parent="dNxyNK7c78bLwvsdeMH5-20" source="TgIMgoYjFMIsPRe75QUH-8" target="TgIMgoYjFMIsPRe75QUH-4">
          <mxGeometry relative="1" as="geometry">
            <mxPoint x="370" y="53" as="targetPoint" />
            <Array as="points">
              <mxPoint x="610" y="70" />
              <mxPoint x="393" y="70" />
            </Array>
          </mxGeometry>
        </mxCell>
        <mxCell id="TgIMgoYjFMIsPRe75QUH-8" value="remove non-Chinese" style="rounded=1;whiteSpace=wrap;html=1;" vertex="1" parent="dNxyNK7c78bLwvsdeMH5-20">
          <mxGeometry x="565" y="20" width="90" height="30" as="geometry" />
        </mxCell>
        <mxCell id="TgIMgoYjFMIsPRe75QUH-10" value="rules" style="rhombus;whiteSpace=wrap;html=1;" vertex="1" parent="dNxyNK7c78bLwvsdeMH5-20">
          <mxGeometry x="445" y="90" width="90" height="30" as="geometry" />
        </mxCell>
        <mxCell id="TgIMgoYjFMIsPRe75QUH-16" value="True" style="text;html=1;strokeColor=none;fillColor=none;align=center;verticalAlign=middle;whiteSpace=wrap;rounded=0;" vertex="1" parent="dNxyNK7c78bLwvsdeMH5-20">
          <mxGeometry x="475" y="115" width="60" height="30" as="geometry" />
        </mxCell>
        <mxCell id="TgIMgoYjFMIsPRe75QUH-35" value="vue-ele-form" style="text;html=1;strokeColor=none;fillColor=none;align=center;verticalAlign=middle;whiteSpace=wrap;rounded=0;fontSize=11;" vertex="1" parent="dNxyNK7c78bLwvsdeMH5-20">
          <mxGeometry x="555" y="100" width="110" height="30" as="geometry" />
        </mxCell>
        <mxCell id="TgIMgoYjFMIsPRe75QUH-15" style="edgeStyle=orthogonalEdgeStyle;rounded=0;orthogonalLoop=1;jettySize=auto;html=1;" edge="1" parent="dNxyNK7c78bLwvsdeMH5-19" source="TgIMgoYjFMIsPRe75QUH-10" target="TgIMgoYjFMIsPRe75QUH-13">
          <mxGeometry relative="1" as="geometry" />
        </mxCell>
        <mxCell id="TgIMgoYjFMIsPRe75QUH-25" style="edgeStyle=orthogonalEdgeStyle;rounded=0;orthogonalLoop=1;jettySize=auto;html=1;entryX=0.5;entryY=0;entryDx=0;entryDy=0;entryPerimeter=0;fontSize=11;" edge="1" parent="dNxyNK7c78bLwvsdeMH5-19" source="TgIMgoYjFMIsPRe75QUH-4" target="TgIMgoYjFMIsPRe75QUH-24">
          <mxGeometry relative="1" as="geometry" />
        </mxCell>
        <mxCell id="TgIMgoYjFMIsPRe75QUH-33" style="edgeStyle=orthogonalEdgeStyle;rounded=0;orthogonalLoop=1;jettySize=auto;html=1;fontSize=11;" edge="1" parent="dNxyNK7c78bLwvsdeMH5-19" source="TgIMgoYjFMIsPRe75QUH-27">
          <mxGeometry relative="1" as="geometry">
            <mxPoint x="510" y="315" as="targetPoint" />
          </mxGeometry>
        </mxCell>
        <mxCell id="TgIMgoYjFMIsPRe75QUH-39" style="edgeStyle=orthogonalEdgeStyle;rounded=0;orthogonalLoop=1;jettySize=auto;html=1;fontSize=11;" edge="1" parent="dNxyNK7c78bLwvsdeMH5-19" source="TgIMgoYjFMIsPRe75QUH-21" target="TgIMgoYjFMIsPRe75QUH-38">
          <mxGeometry relative="1" as="geometry" />
        </mxCell>
        <mxCell id="dNxyNK7c78bLwvsdeMH5-21" value="通信" style="swimlane;html=1;startSize=20;horizontal=0;" parent="dNxyNK7c78bLwvsdeMH5-19" vertex="1">
          <mxGeometry x="20" y="155" width="700" height="150" as="geometry" />
        </mxCell>
        <mxCell id="TgIMgoYjFMIsPRe75QUH-19" style="edgeStyle=orthogonalEdgeStyle;rounded=0;orthogonalLoop=1;jettySize=auto;html=1;entryX=0;entryY=0.5;entryDx=0;entryDy=0;" edge="1" parent="dNxyNK7c78bLwvsdeMH5-21" source="TgIMgoYjFMIsPRe75QUH-13" target="TgIMgoYjFMIsPRe75QUH-17">
          <mxGeometry relative="1" as="geometry" />
        </mxCell>
        <mxCell id="TgIMgoYjFMIsPRe75QUH-13" value="get timestamp" style="rounded=1;whiteSpace=wrap;html=1;" vertex="1" parent="dNxyNK7c78bLwvsdeMH5-21">
          <mxGeometry x="445" y="10" width="90" height="30" as="geometry" />
        </mxCell>
        <mxCell id="TgIMgoYjFMIsPRe75QUH-23" style="edgeStyle=orthogonalEdgeStyle;rounded=0;orthogonalLoop=1;jettySize=auto;html=1;entryX=0.5;entryY=0;entryDx=0;entryDy=0;entryPerimeter=0;fontSize=11;" edge="1" parent="dNxyNK7c78bLwvsdeMH5-21" source="TgIMgoYjFMIsPRe75QUH-17" target="TgIMgoYjFMIsPRe75QUH-21">
          <mxGeometry relative="1" as="geometry" />
        </mxCell>
        <mxCell id="TgIMgoYjFMIsPRe75QUH-17" value="encryption system" style="rounded=1;whiteSpace=wrap;html=1;" vertex="1" parent="dNxyNK7c78bLwvsdeMH5-21">
          <mxGeometry x="565" y="10" width="90" height="30" as="geometry" />
        </mxCell>
        <mxCell id="TgIMgoYjFMIsPRe75QUH-29" style="edgeStyle=orthogonalEdgeStyle;rounded=0;orthogonalLoop=1;jettySize=auto;html=1;entryX=1;entryY=0.5;entryDx=0;entryDy=0;fontSize=11;" edge="1" parent="dNxyNK7c78bLwvsdeMH5-21" source="TgIMgoYjFMIsPRe75QUH-21" target="TgIMgoYjFMIsPRe75QUH-27">
          <mxGeometry relative="1" as="geometry" />
        </mxCell>
        <mxCell id="TgIMgoYjFMIsPRe75QUH-21" value="&lt;font style=&quot;font-size: 11px;&quot;&gt;time&lt;br&gt;stamp&lt;/font&gt;" style="shape=cylinder3;whiteSpace=wrap;html=1;boundedLbl=1;backgroundOutline=1;size=9.5;fontSize=6;" vertex="1" parent="dNxyNK7c78bLwvsdeMH5-21">
          <mxGeometry x="581.25" y="60" width="57.5" height="70" as="geometry" />
        </mxCell>
        <mxCell id="TgIMgoYjFMIsPRe75QUH-28" style="edgeStyle=orthogonalEdgeStyle;rounded=0;orthogonalLoop=1;jettySize=auto;html=1;entryX=0;entryY=0.5;entryDx=0;entryDy=0;fontSize=11;" edge="1" parent="dNxyNK7c78bLwvsdeMH5-21" source="TgIMgoYjFMIsPRe75QUH-24" target="TgIMgoYjFMIsPRe75QUH-27">
          <mxGeometry relative="1" as="geometry" />
        </mxCell>
        <mxCell id="TgIMgoYjFMIsPRe75QUH-24" value="&lt;font style=&quot;font-size: 11px;&quot;&gt;input&lt;br&gt;text&lt;br&gt;&lt;/font&gt;" style="shape=cylinder3;whiteSpace=wrap;html=1;boundedLbl=1;backgroundOutline=1;size=9.5;fontSize=6;" vertex="1" parent="dNxyNK7c78bLwvsdeMH5-21">
          <mxGeometry x="341.25" y="60" width="57.5" height="70" as="geometry" />
        </mxCell>
        <mxCell id="TgIMgoYjFMIsPRe75QUH-27" value="axios" style="rounded=1;whiteSpace=wrap;html=1;fontSize=11;" vertex="1" parent="dNxyNK7c78bLwvsdeMH5-21">
          <mxGeometry x="445" y="80" width="90" height="30" as="geometry" />
        </mxCell>
        <mxCell id="TgIMgoYjFMIsPRe75QUH-34" value="Get" style="text;html=1;strokeColor=none;fillColor=none;align=center;verticalAlign=middle;whiteSpace=wrap;rounded=0;fontSize=11;" vertex="1" parent="dNxyNK7c78bLwvsdeMH5-21">
          <mxGeometry x="475" y="115" width="60" height="30" as="geometry" />
        </mxCell>
        <mxCell id="TgIMgoYjFMIsPRe75QUH-55" value="Get" style="text;html=1;strokeColor=none;fillColor=none;align=center;verticalAlign=middle;whiteSpace=wrap;rounded=0;fontSize=11;" vertex="1" parent="dNxyNK7c78bLwvsdeMH5-21">
          <mxGeometry x="190" y="110" width="60" height="30" as="geometry" />
        </mxCell>
        <mxCell id="dNxyNK7c78bLwvsdeMH5-22" value="后端" style="swimlane;html=1;startSize=20;horizontal=0;" parent="dNxyNK7c78bLwvsdeMH5-19" vertex="1">
          <mxGeometry x="20" y="305" width="700" height="150" as="geometry" />
        </mxCell>
        <mxCell id="TgIMgoYjFMIsPRe75QUH-32" value="" style="rounded=1;whiteSpace=wrap;html=1;" vertex="1" parent="dNxyNK7c78bLwvsdeMH5-22">
          <mxGeometry x="305" y="10" width="390" height="130" as="geometry" />
        </mxCell>
        <mxCell id="TgIMgoYjFMIsPRe75QUH-53" style="edgeStyle=orthogonalEdgeStyle;rounded=0;orthogonalLoop=1;jettySize=auto;html=1;entryX=1;entryY=0.5;entryDx=0;entryDy=0;fontSize=11;" edge="1" parent="dNxyNK7c78bLwvsdeMH5-22" source="TgIMgoYjFMIsPRe75QUH-38" target="TgIMgoYjFMIsPRe75QUH-42">
          <mxGeometry relative="1" as="geometry" />
        </mxCell>
        <mxCell id="TgIMgoYjFMIsPRe75QUH-38" value="decryption&lt;br&gt;system" style="rounded=1;whiteSpace=wrap;html=1;fontSize=11;" vertex="1" parent="dNxyNK7c78bLwvsdeMH5-22">
          <mxGeometry x="565" y="55" width="90" height="30" as="geometry" />
        </mxCell>
        <mxCell id="TgIMgoYjFMIsPRe75QUH-46" style="edgeStyle=orthogonalEdgeStyle;rounded=0;orthogonalLoop=1;jettySize=auto;html=1;entryX=1;entryY=0.5;entryDx=0;entryDy=0;fontSize=11;" edge="1" parent="dNxyNK7c78bLwvsdeMH5-22" source="TgIMgoYjFMIsPRe75QUH-42" target="TgIMgoYjFMIsPRe75QUH-45">
          <mxGeometry relative="1" as="geometry" />
        </mxCell>
        <mxCell id="TgIMgoYjFMIsPRe75QUH-42" value="verify" style="rhombus;whiteSpace=wrap;html=1;fontSize=11;" vertex="1" parent="dNxyNK7c78bLwvsdeMH5-22">
          <mxGeometry x="445" y="55" width="90" height="30" as="geometry" />
        </mxCell>
        <mxCell id="TgIMgoYjFMIsPRe75QUH-52" style="edgeStyle=orthogonalEdgeStyle;rounded=0;orthogonalLoop=1;jettySize=auto;html=1;exitX=0.5;exitY=0;exitDx=0;exitDy=0;entryX=0.5;entryY=1;entryDx=0;entryDy=0;entryPerimeter=0;fontSize=11;" edge="1" parent="dNxyNK7c78bLwvsdeMH5-22" source="TgIMgoYjFMIsPRe75QUH-45" target="TgIMgoYjFMIsPRe75QUH-48">
          <mxGeometry relative="1" as="geometry" />
        </mxCell>
        <mxCell id="TgIMgoYjFMIsPRe75QUH-45" value="inference" style="rounded=1;whiteSpace=wrap;html=1;fontSize=11;" vertex="1" parent="dNxyNK7c78bLwvsdeMH5-22">
          <mxGeometry x="130" y="105" width="90" height="30" as="geometry" />
        </mxCell>
        <mxCell id="TgIMgoYjFMIsPRe75QUH-48" value="&lt;font style=&quot;font-size: 11px;&quot;&gt;midi&lt;br&gt;file&lt;br&gt;&lt;/font&gt;" style="shape=cylinder3;whiteSpace=wrap;html=1;boundedLbl=1;backgroundOutline=1;size=9.5;fontSize=6;" vertex="1" parent="dNxyNK7c78bLwvsdeMH5-22">
          <mxGeometry x="146.25" y="10" width="57.5" height="70" as="geometry" />
        </mxCell>
        <mxCell id="TgIMgoYjFMIsPRe75QUH-49" style="edgeStyle=orthogonalEdgeStyle;rounded=0;orthogonalLoop=1;jettySize=auto;html=1;entryX=1;entryY=0.5;entryDx=0;entryDy=0;fontSize=11;" edge="1" parent="dNxyNK7c78bLwvsdeMH5-19" source="TgIMgoYjFMIsPRe75QUH-24" target="TgIMgoYjFMIsPRe75QUH-45">
          <mxGeometry relative="1" as="geometry" />
        </mxCell>
        <mxCell id="TgIMgoYjFMIsPRe75QUH-54" style="edgeStyle=orthogonalEdgeStyle;rounded=0;orthogonalLoop=1;jettySize=auto;html=1;exitX=0.5;exitY=1;exitDx=0;exitDy=0;fontSize=11;entryX=0.709;entryY=0.02;entryDx=0;entryDy=0;entryPerimeter=0;" edge="1" parent="dNxyNK7c78bLwvsdeMH5-19" source="TgIMgoYjFMIsPRe75QUH-27" target="TgIMgoYjFMIsPRe75QUH-48">
          <mxGeometry relative="1" as="geometry">
            <mxPoint x="210" y="310" as="targetPoint" />
          </mxGeometry>
        </mxCell>
        <mxCell id="TgIMgoYjFMIsPRe75QUH-6" style="edgeStyle=orthogonalEdgeStyle;rounded=0;orthogonalLoop=1;jettySize=auto;html=1;entryX=0.5;entryY=0;entryDx=0;entryDy=0;" edge="1" parent="1" source="TgIMgoYjFMIsPRe75QUH-1" target="TgIMgoYjFMIsPRe75QUH-4">
          <mxGeometry relative="1" as="geometry" />
        </mxCell>
        <mxCell id="TgIMgoYjFMIsPRe75QUH-7" style="edgeStyle=orthogonalEdgeStyle;rounded=0;orthogonalLoop=1;jettySize=auto;html=1;entryX=0.5;entryY=0;entryDx=0;entryDy=0;" edge="1" parent="1" source="TgIMgoYjFMIsPRe75QUH-1" target="TgIMgoYjFMIsPRe75QUH-5">
          <mxGeometry relative="1" as="geometry" />
        </mxCell>
        <mxCell id="TgIMgoYjFMIsPRe75QUH-9" style="edgeStyle=orthogonalEdgeStyle;rounded=0;orthogonalLoop=1;jettySize=auto;html=1;" edge="1" parent="1" source="TgIMgoYjFMIsPRe75QUH-1" target="TgIMgoYjFMIsPRe75QUH-8">
          <mxGeometry relative="1" as="geometry" />
        </mxCell>
        <mxCell id="TgIMgoYjFMIsPRe75QUH-1" value="" style="shape=umlActor;verticalLabelPosition=bottom;verticalAlign=top;html=1;outlineConnect=0;" vertex="1" parent="1">
          <mxGeometry x="615" y="30" width="30" height="60" as="geometry" />
        </mxCell>
        <mxCell id="TgIMgoYjFMIsPRe75QUH-58" style="edgeStyle=orthogonalEdgeStyle;rounded=0;orthogonalLoop=1;jettySize=auto;html=1;entryX=0.5;entryY=0;entryDx=0;entryDy=0;entryPerimeter=0;fontSize=11;" edge="1" parent="1" source="TgIMgoYjFMIsPRe75QUH-48" target="TgIMgoYjFMIsPRe75QUH-1">
          <mxGeometry relative="1" as="geometry">
            <Array as="points">
              <mxPoint x="300" y="10" />
              <mxPoint x="630" y="10" />
            </Array>
          </mxGeometry>
        </mxCell>
      </root>
    </mxGraphModel>
  </diagram>
</mxfile>
